<?xml version="1.0" encoding="UTF-8"?>
<svg version="1.1" xmlns="http://www.w3.org/2000/svg" width="310" height="163">
<path d="M0 0 C0.60585937 0.45503906 1.21171875 0.91007812 1.8359375 1.37890625 C3.8522865 2.77699046 3.8522865 2.77699046 7.625 2.4375 C6.09784664 5.90830308 3.98121588 8.81391878 1.74609375 11.8515625 C0.55463819 13.45229791 0.55463819 13.45229791 -0.375 15.4375 C-2.04166667 16.77083333 -3.70833333 18.10416667 -5.375 19.4375 C-5.705 20.0975 -6.035 20.7575 -6.375 21.4375 C-9.375 21.4375 -9.375 21.4375 -11.19921875 19.79296875 C-11.81410156 19.07753906 -12.42898437 18.36210938 -13.0625 17.625 C-13.68511719 16.91730469 -14.30773437 16.20960937 -14.94921875 15.48046875 C-16.375 13.4375 -16.375 13.4375 -16.375 10.4375 C-15.611875 10.746875 -14.84875 11.05625 -14.0625 11.375 C-12.18710323 12.11643593 -10.28815348 12.79978217 -8.375 13.4375 C-6.04681285 12.07967383 -6.04681285 12.07967383 -3.75 10.125 C-2.95335938 9.48949219 -2.15671875 8.85398437 -1.3359375 8.19921875 C0.70574699 6.58139967 0.70574699 6.58139967 1.625 4.4375 C-6.92351599 3.89473708 -13.78088214 5.70348447 -20.375 11.4375 C-20.08890572 16.07191548 -20.08890572 16.07191548 -18.09375 20.11328125 C-14.91455135 22.5627093 -11.28240801 22.551308 -7.375 22.4375 C-3.05006373 21.45111103 1.57442744 19.73211837 4.625 16.4375 C5.43446422 13.33552603 5.43446422 13.33552603 5.625 10.4375 C6.285 10.4375 6.945 10.4375 7.625 10.4375 C9.29130494 23.09241047 9.29130494 23.09241047 6.625 27.4375 C0.11080159 32.85848518 -5.20464923 35.88081313 -13.7421875 35.78125 C-19.48450385 35.03151137 -23.59107614 31.56555585 -27.3125 27.3125 C-31.08617512 22.05222559 -31.12236589 16.71709156 -30.375 10.4375 C-28.16439626 4.53925236 -23.92141386 0.32858374 -18.375 -2.5625 C-12.07129978 -4.65517441 -5.48020428 -3.62268185 0 0 Z " fill="#3AA6DD" transform="translate(66.375,64.5625)"/>
<path d="M0 0 C0.33 0.66 0.66 1.32 1 2 C0.67 2.66 0.34 3.32 0 4 C-0.67976599 10.38980029 0.96119741 16.34445073 4 22 C6.41233849 23.84071915 7.62093697 24.02452761 10.65625 23.828125 C11.5946875 23.63734375 12.533125 23.4465625 13.5 23.25 C14.90765625 22.97929688 14.90765625 22.97929688 16.34375 22.703125 C18.81093084 22.05004772 20.7759305 21.22909104 23 20 C23.66 19.67 24.32 19.34 25 19 C25.33 19.66 25.66 20.32 26 21 C28.99324263 19.9024777 29.84610901 19.32317108 31.25 16.375 C31.4975 15.59125 31.745 14.8075 32 14 C33.625 15.625 33.625 15.625 35 18 C34.8125 20.8125 34.8125 20.8125 33 24 C26.5270433 29.44621184 21.14327219 32.44299734 12.6328125 32.34375 C6.89049615 31.59401137 2.78392386 28.12805585 -0.9375 23.875 C-4.70675004 18.62089388 -4.67182502 13.27327514 -4 7 C-2.93728539 4.29448638 -1.69998809 2.39060826 0 0 Z " fill="#1D88D2" transform="translate(40,68)"/>
<path d="M0 0 C-0.6496875 0.77923828 -0.6496875 0.77923828 -1.3125 1.57421875 C-1.869375 2.27160156 -2.42625 2.96898438 -3 3.6875 C-3.556875 4.37199219 -4.11375 5.05648437 -4.6875 5.76171875 C-6.2592917 8.44218496 -6.48675586 9.94256475 -6 13 C-5.01 13.66 -4.02 14.32 -3 15 C-2.54625 15.825 -2.0925 16.65 -1.625 17.5 C0.40223583 20.61882435 1.37504973 21.21196733 5 22 C11.28968591 22.09458174 15.93629968 20.72026963 21 17 C22.39547969 14.45173275 23 12.88102539 23 10 C23.66 10 24.32 10 25 10 C25.92844389 14.33273814 25.92844389 17.66726186 25 22 C24.34 21.01 23.68 20.02 23 19 C22.01 20.98 21.02 22.96 20 25 C19.360625 24.814375 18.72125 24.62875 18.0625 24.4375 C17.0415625 24.2209375 17.0415625 24.2209375 16 24 C15.67 24.33 15.34 24.66 15 25 C12.39707495 25.62058439 9.81182039 26.17549349 7.1875 26.6875 C6.46240234 26.84283203 5.73730469 26.99816406 4.99023438 27.15820312 C1.99938092 27.74105014 -0.41201593 28.16730468 -3.375 27.32421875 C-5.30940269 25.74786656 -6.14242259 24.3857797 -7.1875 22.125 C-7.51105469 21.44695312 -7.83460937 20.76890625 -8.16796875 20.0703125 C-10.3921127 14.53605761 -10.85604057 9.38790265 -8.8125 3.6875 C-6.55998765 0.34756789 -3.97857261 -1.98928631 0 0 Z " fill="#289FEB" transform="translate(49,65)"/>
<path d="M0 0 C1.625 1.625 1.625 1.625 3 4 C2.8125 7 2.8125 7 1 10 C-7.94168086 15.63827458 -17.31097281 14.62033833 -27.1640625 12.4375 C-28.07285156 12.2209375 -28.07285156 12.2209375 -29 12 C-28.67 10.68 -28.34 9.36 -28 8 C-27.4534375 8.34546875 -26.906875 8.6909375 -26.34375 9.046875 C-23.34737806 10.26539959 -21.64790958 9.88995964 -18.5 9.25 C-17.5615625 9.06953125 -16.623125 8.8890625 -15.65625 8.703125 C-13.18906916 8.05004772 -11.2240695 7.22909104 -9 6 C-8.34 5.67 -7.68 5.34 -7 5 C-6.67 5.66 -6.34 6.32 -6 7 C-3.00675737 5.9024777 -2.15389099 5.32317108 -0.75 2.375 C-0.5025 1.59125 -0.255 0.8075 0 0 Z " fill="#1C98EE" transform="translate(72,82)"/>
<path d="M0 0 C-1.52715336 3.47080308 -3.64378412 6.37641878 -5.87890625 9.4140625 C-7.07036181 11.01479791 -7.07036181 11.01479791 -8 13 C-9.66666667 14.33333333 -11.33333333 15.66666667 -13 17 C-13.33 17.66 -13.66 18.32 -14 19 C-17 19 -17 19 -18.82421875 17.35546875 C-19.43910156 16.64003906 -20.05398437 15.92460938 -20.6875 15.1875 C-21.62142578 14.12595703 -21.62142578 14.12595703 -22.57421875 13.04296875 C-24 11 -24 11 -24 8 C-23.236875 8.309375 -22.47375 8.61875 -21.6875 8.9375 C-19.81210323 9.67893593 -17.91315348 10.36228217 -16 11 C-13.70649061 9.63964617 -13.70649061 9.63964617 -11.4375 7.6875 C-10.65246094 7.05199219 -9.86742188 6.41648437 -9.05859375 5.76171875 C-6.96116243 4.01281312 -6.96116243 4.01281312 -5 2 C-3.39600409 0.39600409 -2.25375317 0 0 0 Z " fill="#2486C9" transform="translate(74,67)"/>
<path d="M0 0 C4.59037956 1.14759489 5.33669182 2.29039218 8 6 C8.33 4.02 8.66 2.04 9 0 C10.32 0 11.64 0 13 0 C13.02705729 1.77074917 13.04642195 3.54161711 13.0625 5.3125 C13.07410156 6.29863281 13.08570312 7.28476563 13.09765625 8.30078125 C13 11 13 11 12 14 C8.2047869 12.50902342 6.38957269 10.24299151 4 7 C3.67 9.31 3.34 11.62 3 14 C2.01 14 1.02 14 0 14 C0 9.38 0 4.76 0 0 Z " fill="#515257" transform="translate(111,74)"/>
<path d="M0 0 C2.5 1.5625 2.5 1.5625 4 4 C4.0625 7.5625 4.0625 7.5625 3 11 C0.1628797 13.59393856 -1.28542702 14.02858292 -5.125 13.875 C-9.46808511 12.55319149 -9.46808511 12.55319149 -11 10 C-11.4375 6.5 -11.4375 6.5 -11 3 C-8.00347253 -0.71569406 -4.51782131 -0.56472766 0 0 Z M-6 3 C-7.29633621 4.06645115 -7.29633621 4.06645115 -7.0625 6.5625 C-7.041875 7.366875 -7.02125 8.17125 -7 9 C-5.02 9.99 -5.02 9.99 -3 11 C-2.01 10.34 -1.02 9.68 0 9 C0.25030977 6.41619823 0.25030977 6.41619823 0 4 C-1.9914056 3.61866701 -3.99279077 3.28674418 -6 3 Z " fill="#494F55" transform="translate(256,74)"/>
<path d="M0 0 C2.4375 1.0625 2.4375 1.0625 4 3 C4.43004436 6.44035486 4.69515716 8.84140473 2.875 11.875 C0.18335071 13.48998958 -1.86418639 13.87456746 -5 14 C-7.8125 13 -7.8125 13 -10 11 C-11.0625 7.5625 -11.0625 7.5625 -11 4 C-8.18824193 -0.56910686 -5.08203183 -0.63525398 0 0 Z M-5 3 C-5.66 3.66 -6.32 4.32 -7 5 C-6.67958603 7.60280568 -6.67958603 7.60280568 -6 10 C-3 11.33333333 -3 11.33333333 0 10 C0.92393164 8.13803054 0.92393164 8.13803054 1 6 C0.34 5.01 -0.32 4.02 -1 3 C-2.32 3 -3.64 3 -5 3 Z " fill="#50565E" transform="translate(182,74)"/>
<path d="M0 0 C1.60875 -0.04125 3.2175 -0.0825 4.875 -0.125 C5.77992188 -0.14820312 6.68484375 -0.17140625 7.6171875 -0.1953125 C10 0 10 0 12 2 C12.25 4.5 12.25 4.5 12 7 C11.34 7.66 10.68 8.32 10 9 C10.66 10.32 11.32 11.64 12 13 C10.35 12.67 8.7 12.34 7 12 C6.67 11.01 6.34 10.02 6 9 C5.34 9 4.68 9 4 9 C3.67 10.32 3.34 11.64 3 13 C2.01 13 1.02 13 0 13 C0 8.71 0 4.42 0 0 Z M4 3 C4 3.99 4 4.98 4 6 C5.32 6 6.64 6 8 6 C8 5.01 8 4.02 8 3 C6.68 3 5.36 3 4 3 Z " fill="#5B6168" transform="translate(158,74)"/>
<path d="M0 0 C8.19057816 -0.48179872 8.19057816 -0.48179872 11.625 1.5625 C13 4 13 4 13.0625 7.5625 C12 11 12 11 9.875 12.9375 C7 14 7 14 0 14 C0 9.38 0 4.76 0 0 Z M3 3 C3 5.64 3 8.28 3 11 C6.29075996 10.62095792 6.29075996 10.62095792 9 9 C9.16666667 6.5 9.16666667 6.5 9 4 C7.93354885 2.70366379 7.93354885 2.70366379 5.4375 2.9375 C4.633125 2.958125 3.82875 2.97875 3 3 Z " fill="#5F6769" transform="translate(81,74)"/>
<path d="M0 0 C3.63 0 7.26 0 11 0 C11 0.99 11 1.98 11 3 C8.69 3 6.38 3 4 3 C4 3.66 4 4.32 4 5 C5.98 5 7.96 5 10 5 C10 5.99 10 6.98 10 8 C8.02 8.33 6.04 8.66 4 9 C6.31 9.33 8.62 9.66 11 10 C11 10.99 11 11.98 11 13 C6.79405774 13.72795155 4.19895255 14.04973814 0 13 C0 8.71 0 4.42 0 0 Z " fill="#475056" transform="translate(200,74)"/>
<path d="M0 0 C4.59037956 1.14759489 5.33669182 2.29039218 8 6 C8.33 4.02 8.66 2.04 9 0 C9.99 0 10.98 0 12 0 C12 4.29 12 8.58 12 13 C7.40962044 11.85240511 6.66330818 10.70960782 4 7 C3.67 8.98 3.34 10.96 3 13 C2.01 13 1.02 13 0 13 C0 8.71 0 4.42 0 0 Z " fill="#5D6268" transform="translate(262,74)"/>
<path d="M0 0 C1.32 0 2.64 0 4 0 C4.83764268 1.95649397 5.66999059 3.91525556 6.5 5.875 C6.9640625 6.96554688 7.428125 8.05609375 7.90625 9.1796875 C9 12 9 12 9 14 C7.68 13.67 6.36 13.34 5 13 C5 12.34 5 11.68 5 11 C2.69 11 0.38 11 -2 11 C-2.33 11.99 -2.66 12.98 -3 14 C-3.99 14 -4.98 14 -6 14 C-2.74493243 3.40371622 -2.74493243 3.40371622 0 0 Z M1 5 C2 7 2 7 2 7 Z " fill="#52575D" transform="translate(131,74)"/>
<path d="M0 0 C1.423125 -0.061875 2.84625 -0.12375 4.3125 -0.1875 C5.51326172 -0.23970703 5.51326172 -0.23970703 6.73828125 -0.29296875 C9 0 9 0 10.796875 1.3515625 C12 3 12 3 11.9375 5.5625 C11 8 11 8 9.125 9.3125 C7 10 7 10 4 10 C4 10.99 4 11.98 4 13 C2.68 13 1.36 13 0 13 C0 8.71 0 4.42 0 0 Z M4 3 C4 3.99 4 4.98 4 6 C5.32 6 6.64 6 8 6 C7.67 5.01 7.34 4.02 7 3 C6.01 3 5.02 3 4 3 Z " fill="#494F56" transform="translate(145,74)"/>
<path d="M0 0 C1.32 0 2.64 0 4 0 C4.83764268 1.95649397 5.66999059 3.91525556 6.5 5.875 C6.9640625 6.96554688 7.428125 8.05609375 7.90625 9.1796875 C9 12 9 12 9 14 C7.68 13.67 6.36 13.34 5 13 C5 12.34 5 11.68 5 11 C2.69 11 0.38 11 -2 11 C-2.33 11.99 -2.66 12.98 -3 14 C-3.99 14 -4.98 14 -6 14 C-2.74493243 3.40371622 -2.74493243 3.40371622 0 0 Z M1 5 C0.67 5.99 0.34 6.98 0 8 C0.99 8 1.98 8 3 8 C2.67 7.01 2.34 6.02 2 5 C1.67 5 1.34 5 1 5 Z " fill="#66696A" transform="translate(100,74)"/>
<path d="M0 0 C0.66 0.33 1.32 0.66 2 1 C1.67 1.99 1.34 2.98 1 4 C-1.31 4 -3.62 4 -6 4 C-6 5.65 -6 7.3 -6 9 C-2.86650268 10.04449911 -2.01031744 9.93423645 1 9 C1 10.32 1 11.64 1 13 C-2.42514962 13.87620107 -4.44408952 14.19765706 -7.8125 13 C-10 11 -10 11 -11.0625 7.5625 C-11 4 -11 4 -9.5 1.5625 C-6.16724804 -0.52046997 -3.8612692 -0.35752493 0 0 Z " fill="#484D55" transform="translate(223,74)"/>
<path d="M0 0 C1.56640625 1.38671875 1.56640625 1.38671875 2.56640625 4.38671875 C1.57640625 4.88171875 1.57640625 4.88171875 0.56640625 5.38671875 C0.56640625 4.72671875 0.56640625 4.06671875 0.56640625 3.38671875 C-0.27664062 3.33773437 -1.1196875 3.28875 -1.98828125 3.23828125 C-3.63183594 3.12613281 -3.63183594 3.12613281 -5.30859375 3.01171875 C-6.39914063 2.94210938 -7.4896875 2.8725 -8.61328125 2.80078125 C-11.43359375 2.38671875 -11.43359375 2.38671875 -13.43359375 0.38671875 C-13.10359375 -0.27328125 -12.77359375 -0.93328125 -12.43359375 -1.61328125 C-14.41359375 -1.28328125 -16.39359375 -0.95328125 -18.43359375 -0.61328125 C-18.43359375 -1.27328125 -18.43359375 -1.93328125 -18.43359375 -2.61328125 C-11.25169093 -5.00724886 -6.13417232 -3.99741562 0 0 Z " fill="#57BBE5" transform="translate(68.43359375,65.61328125)"/>
<path d="M0 0 C0.66 0 1.32 0 2 0 C2.92844389 4.33273814 2.92844389 7.66726186 2 12 C1.34 11.01 0.68 10.02 0 9 C-0.99 10.98 -1.98 12.96 -3 15 C-3.61875 14.835 -4.2375 14.67 -4.875 14.5 C-6.96063386 13.92365356 -6.96063386 13.92365356 -9 14 C-13.33333333 14 -17.66666667 14 -22 14 C-22 13.01 -22 12.02 -22 11 C-21.443125 11.10699219 -20.88625 11.21398437 -20.3125 11.32421875 C-13.22021796 12.43837792 -8.77354585 11.0319093 -2.5625 7.6875 C-0.36759374 5.31700124 -0.28004002 3.15045023 0 0 Z " fill="#3CA3DB" transform="translate(72,75)"/>
<path d="M0 0 C3.96 0 7.92 0 12 0 C12 0.99 12 1.98 12 3 C10.68 3 9.36 3 8 3 C8.020625 4.27875 8.04125 5.5575 8.0625 6.875 C8.125 10.75 8.125 10.75 7 13 C6.01 13 5.02 13 4 13 C4 9.7 4 6.4 4 3 C2.68 3 1.36 3 0 3 C0 2.01 0 1.02 0 0 Z " fill="#626771" transform="translate(226,74)"/>
<path d="M0 0 C-0.6496875 0.70962891 -0.6496875 0.70962891 -1.3125 1.43359375 C-5.13573447 5.97368469 -6.70083642 8.97509875 -6.27734375 14.9453125 C-5.95552143 17.32951726 -5.60158757 19.66884816 -5 22 C-5.66 22 -6.32 22 -7 22 C-9.72997072 15.51631954 -11.29247382 10.6053217 -8.8125 3.6875 C-6.55998765 0.34756789 -3.97857261 -1.98928631 0 0 Z " fill="#4EC2EF" transform="translate(49,65)"/>
<path d="M0 0 C1.625 1.625 1.625 1.625 3 4 C2.8125 7 2.8125 7 1 10 C-2.21363923 11.72594134 -5.52464197 12.90994305 -9 14 C-9.66 13.34 -10.32 12.68 -11 12 C-13.58354218 11.83312552 -13.58354218 11.83312552 -16 12 C-13.56035368 9.56035368 -12.94304842 9.84005854 -9.625 9.8125 C-6.16224814 9.55407163 -6.16224814 9.55407163 -3.5546875 7.453125 C-2.3261632 5.33242895 -2.3261632 5.33242895 -1 2 C-0.67 1.34 -0.34 0.68 0 0 Z " fill="#138DE4" transform="translate(72,82)"/>
<path d="M0 0 C3.96 0 7.92 0 12 0 C12 0.99 12 1.98 12 3 C10.35 3 8.7 3 7 3 C7 6.3 7 9.6 7 13 C6.01 13 5.02 13 4 13 C4 9.7 4 6.4 4 3 C2.68 3 1.36 3 0 3 C0 2.01 0 1.02 0 0 Z " fill="#4B4D54" transform="translate(187,74)"/>
<path d="M0 0 C3.3 0 6.6 0 10 0 C10.33 0.66 10.66 1.32 11 2 C10.34 2 9.68 2 9 2 C8.67 3.65 8.34 5.3 8 7 C6.35 7 4.7 7 3 7 C2.67 5.68 2.34 4.36 2 3 C2 5.31 2 7.62 2 10 C2.66 9.67 3.32 9.34 4 9 C3.67 10.32 3.34 11.64 3 13 C2.01 13 1.02 13 0 13 C0 8.71 0 4.42 0 0 Z M4 3 C4 3.99 4 4.98 4 6 C5.32 6 6.64 6 8 6 C8 5.01 8 4.02 8 3 C6.68 3 5.36 3 4 3 Z " fill="#45484F" transform="translate(158,74)"/>
<path d="M0 0 C0.763125 0.309375 1.52625 0.61875 2.3125 0.9375 C6.21557652 2.77700785 6.21557652 2.77700785 10.1875 2.0625 C10.785625 1.711875 11.38375 1.36125 12 1 C10.625 3 10.625 3 9 5 C8.34 5 7.68 5 7 5 C7 5.99 7 6.98 7 8 C7.99 8 8.98 8 10 8 C10 7.34 10 6.68 10 6 C11.32 5.67 12.64 5.34 14 5 C12.1875 8 12.1875 8 10 11 C7 11 7 11 5.17578125 9.35546875 C4.56089844 8.64003906 3.94601563 7.92460938 3.3125 7.1875 C2.37857422 6.12595703 2.37857422 6.12595703 1.42578125 5.04296875 C0 3 0 3 0 0 Z " fill="#3192C8" transform="translate(50,75)"/>
<path d="M0 0 C1.32 0 2.64 0 4 0 C4 4.29 4 8.58 4 13 C2.68 13 1.36 13 0 13 C0 8.71 0 4.42 0 0 Z " fill="#50555C" transform="translate(239,74)"/>
<path d="M0 0 C3.63 0 7.26 0 11 0 C11 0.99 11 1.98 11 3 C8.69 3 6.38 3 4 3 C4 3.66 4 4.32 4 5 C4.66 5.66 5.32 6.32 6 7 C4.34385343 7.38218767 2.67542976 7.71395102 1 8 C0 7 0 7 -0.0625 3.4375 C-0.041875 2.303125 -0.02125 1.16875 0 0 Z " fill="#52585F" transform="translate(200,74)"/>
<path d="M0 0 C3.21902826 2.14601884 4.29455754 3.58911508 6 7 C6 8.32 6 9.64 6 11 C2.25 12.125 2.25 12.125 0 11 C-0.44921875 8.75 -0.44921875 8.75 -0.6875 6 C-0.77386719 5.0925 -0.86023437 4.185 -0.94921875 3.25 C-0.96597656 2.5075 -0.98273437 1.765 -1 1 C-0.67 0.67 -0.34 0.34 0 0 Z " fill="#2CBDF4" transform="translate(43,78)"/>
<path d="M0 0 C3.86695678 0 6.5088452 1.41909971 10 3 C10.33 2.01 10.66 1.02 11 0 C11.66 2.31 12.32 4.62 13 7 C11.68 6.67 10.36 6.34 9 6 C9 5.34 9 4.68 9 4 C6.69 4 4.38 4 2 4 C1.67 4.99 1.34 5.98 1 7 C0.01 7 -0.98 7 -2 7 C-1.34 4.69 -0.68 2.38 0 0 Z " fill="#4A4F54" transform="translate(96,81)"/>
<path d="M0 0 C0.66 1.32 1.32 2.64 2 4 C5.56206661 4.81870185 5.56206661 4.81870185 9 5 C9.33 4.01 9.66 3.02 10 2 C10.66 4.31 11.32 6.62 12 9 C10.68 8.67 9.36 8.34 8 8 C8 7.34 8 6.68 8 6 C5.69 6 3.38 6 1 6 C0.67 6.99 0.34 7.98 0 9 C-0.99 9 -1.98 9 -3 9 C-2.01 6.03 -1.02 3.06 0 0 Z " fill="#484D53" transform="translate(128,79)"/>
<path d="M0 0 C1.32 0 2.64 0 4 0 C4.02705729 1.77074917 4.04642195 3.54161711 4.0625 5.3125 C4.07410156 6.29863281 4.08570312 7.28476563 4.09765625 8.30078125 C4 11 4 11 3 14 C1.68 13.34 0.36 12.68 -1 12 C-0.505 11.54625 -0.01 11.0925 0.5 10.625 C2.22609337 9.12364481 2.22609337 9.12364481 2 7 C1.34 7 0.68 7 0 7 C0 4.69 0 2.38 0 0 Z " fill="#4B5057" transform="translate(120,74)"/>
<path d="M0 0 C2.31 0 4.62 0 7 0 C6.67 0.99 6.34 1.98 6 3 C5.01 3 4.02 3 3 3 C3.061875 4.0725 3.12375 5.145 3.1875 6.25 C3 10 3 10 0 14 C0 9.38 0 4.76 0 0 Z " fill="#54585B" transform="translate(81,74)"/>
<path d="M0 0 C0.99 0 1.98 0 3 0 C3 4.29 3 8.58 3 13 C1.68 12.67 0.36 12.34 -1 12 C-1.33 11.34 -1.66 10.68 -2 10 C-1.01 9.34 -0.02 8.68 1 8 C0.34 7.67 -0.32 7.34 -1 7 C-0.67 4.69 -0.34 2.38 0 0 Z " fill="#45474D" transform="translate(271,74)"/>
<path d="M0 0 C0.66 0.33 1.32 0.66 2 1 C0.89932004 1.81721717 -0.20569731 2.62859451 -1.3125 3.4375 C-1.92738281 3.88996094 -2.54226562 4.34242187 -3.17578125 4.80859375 C-6.51344077 6.98843562 -9.31498138 7.11279245 -13.1875 7.0625 C-14.53908203 7.04896484 -14.53908203 7.04896484 -15.91796875 7.03515625 C-16.60503906 7.02355469 -17.29210938 7.01195313 -18 7 C-18 6.67 -18 6.34 -18 6 C-15.03 6 -12.06 6 -9 6 C-8.67 4.68 -8.34 3.36 -8 2 C-6.2984375 1.7834375 -6.2984375 1.7834375 -4.5625 1.5625 C-1.19222799 1.38828522 -1.19222799 1.38828522 0 0 Z " fill="#2A92D5" transform="translate(68,93)"/>
<path d="M0 0 C0.33 0.66 0.66 1.32 1 2 C0.67 2.66 0.34 3.32 0 4 C-0.17748134 5.43393653 -0.31891147 6.8724964 -0.4375 8.3125 C-0.79189424 11.85644243 -1.43323488 14.76201875 -3 18 C-3.33 18 -3.66 18 -4 18 C-4.474377 10.71304215 -4.28670939 6.02818509 0 0 Z " fill="#278DCC" transform="translate(40,68)"/>
<path d="M0 0 C0.33 0.66 0.66 1.32 1 2 C1.66 2.33 2.32 2.66 3 3 C-1.27118644 6.05084746 -1.27118644 6.05084746 -4.6875 5.8125 C-7 5 -7 5 -9 3 C-8.34 3 -7.68 3 -7 3 C-6.67 2.34 -6.34 1.68 -6 1 C-3.03 1.495 -3.03 1.495 0 2 C0 1.34 0 0.68 0 0 Z " fill="#464C54" transform="translate(182,82)"/>
<path d="M0 0 C0.125 2.875 0.125 2.875 0 6 C-0.66 6.66 -1.32 7.32 -2 8 C-2.37125 6.6078125 -2.37125 6.6078125 -2.75 5.1875 C-4.06454245 1.83541675 -4.97963384 0.8122197 -8 -1 C-4.37673261 -2.2077558 -3.35853631 -1.54311128 0 0 Z " fill="#696C6F" transform="translate(93,76)"/>
<path d="M0 0 C0.4125 0.495 0.825 0.99 1.25 1.5 C3.12202338 3.43386092 3.12202338 3.43386092 7 3 C6.67 4.32 6.34 5.64 6 7 C4.68 7.33 3.36 7.66 2 8 C0.68 6.02 -0.64 4.04 -2 2 C-1.34 2 -0.68 2 0 2 C0 1.34 0 0.68 0 0 Z " fill="#565B5F" transform="translate(116,77)"/>
<path d="M0 0 C1.69141656 0.08963062 3.37959602 0.24577676 5.0625 0.4375 C6.44115234 0.59025391 6.44115234 0.59025391 7.84765625 0.74609375 C8.55792969 0.82988281 9.26820312 0.91367188 10 1 C10 1.99 10 2.98 10 4 C7.03 4 4.06 4 1 4 C1 3.34 1 2.68 1 2 C0.34 1.67 -0.32 1.34 -1 1 C-0.67 0.67 -0.34 0.34 0 0 Z " fill="#098AE4" transform="translate(49,95)"/>
<path d="M0 0 C1.32 0.33 2.64 0.66 4 1 C2.515 3.475 2.515 3.475 1 6 C1.66 6 2.32 6 3 6 C3 8.31 3 10.62 3 13 C2.01 13 1.02 13 0 13 C0 8.71 0 4.42 0 0 Z " fill="#515356" transform="translate(262,74)"/>
<path d="M0 0 C0.94668487 2.8400546 1.07985482 4.45031709 1 7.375 C0.95621969 10.72966647 1.15626709 13.73053497 2 17 C1.34 17 0.68 17 0 17 C-1.69242399 14.04497399 -2.27328801 11.90004978 -2.25 8.5 C-2.25515625 7.7471875 -2.2603125 6.994375 -2.265625 6.21875 C-1.97250404 3.7703279 -1.21816769 2.12695946 0 0 Z " fill="#62D7FE" transform="translate(42,70)"/>
<path d="M0 0 C0.99 0.33 1.98 0.66 3 1 C3 2.65 3 4.3 3 6 C0.36 6 -2.28 6 -5 6 C-5 4.35 -5 2.7 -5 1 C-4.34 1 -3.68 1 -3 1 C-3 1.99 -3 2.98 -3 4 C-0.94729537 2.15811388 -0.94729537 2.15811388 0 0 Z " fill="#5E656C" transform="translate(134,78)"/>
<path d="M0 0 C2.97 0 5.94 0 9 0 C9 0.33 9 0.66 9 1 C6.36 1 3.72 1 1 1 C1.33 3.97 1.66 6.94 2 10 C2.66 10 3.32 10 4 10 C4 10.99 4 11.98 4 13 C2.68 13 1.36 13 0 13 C0 8.71 0 4.42 0 0 Z " fill="#41464C" transform="translate(145,74)"/>
<path d="M0 0 C1.70840281 1.63412443 2.93453047 2.86906094 4 5 C2.5682384 5.69937202 1.12932968 6.38412718 -0.3125 7.0625 C-1.51326172 7.63677734 -1.51326172 7.63677734 -2.73828125 8.22265625 C-5 9 -5 9 -8 8 C-7.01 7.67 -6.02 7.34 -5 7 C-5 6.01 -5 5.02 -5 4 C-4.01 4 -3.02 4 -2 4 C-1.34 2.68 -0.68 1.36 0 0 Z " fill="#3BA8DB" transform="translate(55,64)"/>
<path d="M0 0 C0.33 0 0.66 0 1 0 C0.979375 0.78375 0.95875 1.5675 0.9375 2.375 C0.81315937 4.98114961 0.81315937 4.98114961 2 7 C-0.75924185 8.80411967 -1.88972103 9.0127245 -5.25 8.625 C-6.61125 8.315625 -6.61125 8.315625 -8 8 C-8 7.34 -8 6.68 -8 6 C-5.69 5.34 -3.38 4.68 -1 4 C-0.67 2.68 -0.34 1.36 0 0 Z " fill="#434951" transform="translate(256,79)"/>
<path d="M0 0 C0 0.99 0 1.98 0 3 C-1.98 3.33 -3.96 3.66 -6 4 C-6 4.66 -6 5.32 -6 6 C-6.99 6 -7.98 6 -9 6 C-9 3 -9 3 -7.3125 1.3125 C-4.6402007 -0.20421041 -3.02346601 -0.2519555 0 0 Z " fill="#0F90E0" transform="translate(66,77)"/>
<path d="M0 0 C3.96 0 7.92 0 12 0 C12 0.99 12 1.98 12 3 C8 3 4 3 0 3 C0 2.01 0 1.02 0 0 Z " fill="#44464D" transform="translate(187,74)"/>
<path d="M0 0 C1.2065625 0.0309375 1.2065625 0.0309375 2.4375 0.0625 C0.5625 5.8125 0.5625 5.8125 -0.5625 8.0625 C-1.5525 7.7325 -2.5425 7.4025 -3.5625 7.0625 C-3.60504356 5.06295254 -3.60330783 3.06208364 -3.5625 1.0625 C-2.5625 0.0625 -2.5625 0.0625 0 0 Z " fill="#1691D3" transform="translate(45.5625,71.9375)"/>
<path d="M0 0 C1.52299523 2.93720508 2.80100302 5.9168649 4 9 C2.68 9.33 1.36 9.66 0 10 C0 9.01 0 8.02 0 7 C-0.66 7 -1.32 7 -2 7 C-1.125 2.25 -1.125 2.25 0 0 Z " fill="#1795E8" transform="translate(39,79)"/>
<path d="M0 0 C1.32 0.33 2.64 0.66 4 1 C4 3.31 4 5.62 4 8 C3.01 8 2.02 8 1 8 C0.67 5.36 0.34 2.72 0 0 Z " fill="#595B60" transform="translate(182,76)"/>
<path d="M0 0 C1.98 0.99 1.98 0.99 4 2 C3.67 4.31 3.34 6.62 3 9 C2.01 8.67 1.02 8.34 0 8 C0 5.36 0 2.72 0 0 Z " fill="#565A62" transform="translate(256,76)"/>
<path d="M0 0 C0.33 0.66 0.66 1.32 1 2 C0.01 3.32 -0.98 4.64 -2 6 C-2.66 5.34 -3.32 4.68 -4 4 C-3.67 3.34 -3.34 2.68 -3 2 C-4.98 2.33 -6.96 2.66 -9 3 C-9 2.34 -9 1.68 -9 1 C-5.92677456 0.08941469 -3.19902639 -0.08886184 0 0 Z " fill="#4CBFF3" transform="translate(59,62)"/>
<path d="M0 0 C3.5625 0.1875 3.5625 0.1875 5.5625 2.1875 C4.9025 2.1875 4.2425 2.1875 3.5625 2.1875 C3.2325 2.8475 2.9025 3.5075 2.5625 4.1875 C0.9125 4.1875 -0.7375 4.1875 -2.4375 4.1875 C-2.4375 3.5275 -2.4375 2.8675 -2.4375 2.1875 C-3.0975 1.8575 -3.7575 1.5275 -4.4375 1.1875 C-3.4375 0.1875 -3.4375 0.1875 0 0 Z " fill="#494A51" transform="translate(178.4375,73.8125)"/>
<path d="M0 0 C3.96 0 7.92 0 12 0 C12 0.99 12 1.98 12 3 C10.68 3 9.36 3 8 3 C8 2.34 8 1.68 8 1 C7.4225 1.33 6.845 1.66 6.25 2 C4 3 4 3 0 3 C0 2.01 0 1.02 0 0 Z " fill="#4C5057" transform="translate(226,74)"/>
<path d="M0 0 C-2.46278801 2.46278801 -4.70676982 2.99771255 -8 4 C-8.99 2.68 -9.98 1.36 -11 0 C-6.98195309 -0.84098656 -3.98196457 -1.05404945 0 0 Z " fill="#2CA7F2" transform="translate(54,89)"/>
<path d="M0 0 C2.64 0 5.28 0 8 0 C8 0.99 8 1.98 8 3 C5.69 3.33 3.38 3.66 1 4 C0.67 2.68 0.34 1.36 0 0 Z " fill="#3A3E46" transform="translate(203,84)"/>
<path d="M0 0 C0.99 0 1.98 0 3 0 C2.8125 2.375 2.8125 2.375 2 5 C-0.5625 6.3125 -0.5625 6.3125 -3 7 C-3 6.01 -3 5.02 -3 4 C-2.34 4 -1.68 4 -1 4 C-0.67 2.68 -0.34 1.36 0 0 Z " fill="#555F66" transform="translate(154,77)"/>
<path d="M0 0 C2 2 2 2 2.125 4.625 C2.08375 5.40875 2.0425 6.1925 2 7 C0.35 7 -1.3 7 -3 7 C-2.67 5.35 -2.34 3.7 -2 2 C-1.34 2 -0.68 2 0 2 C0 1.34 0 0.68 0 0 Z " fill="#5C5F62" transform="translate(104,77)"/>
<path d="M0 0 C2.97 0.495 2.97 0.495 6 1 C6 1.99 6 2.98 6 4 C2.25 5.125 2.25 5.125 0 4 C0 2.68 0 1.36 0 0 Z " fill="#41B5F1" transform="translate(43,85)"/>
<path d="M0 0 C0.66 0.33 1.32 0.66 2 1 C0.1875 3.5 0.1875 3.5 -2 6 C-2.99 6 -3.98 6 -5 6 C-5.66 4.68 -6.32 3.36 -7 2 C-4.525 2.495 -4.525 2.495 -2 3 C-2 2.34 -2 1.68 -2 1 C-1.34 0.67 -0.68 0.34 0 0 Z " fill="#2A88CC" transform="translate(62,80)"/>
<path d="M0 0 C0.33 0 0.66 0 1 0 C1.125 7.75 1.125 7.75 0 10 C-0.99 10 -1.98 10 -3 10 C-3 8.02 -3 6.04 -3 4 C-2.67 4.99 -2.34 5.98 -2 7 C-1.34 7 -0.68 7 0 7 C0 4.69 0 2.38 0 0 Z " fill="#454955" transform="translate(233,77)"/>
<path d="M0 0 C0.33 0 0.66 0 1 0 C0.38461538 6.52307692 0.38461538 6.52307692 -1.5625 8.9375 C-2.036875 9.288125 -2.51125 9.63875 -3 10 C-3.33 9.34 -3.66 8.68 -4 8 C-3.22265625 6.0546875 -3.22265625 6.0546875 -2.0625 3.875 C-1.49208984 2.78832031 -1.49208984 2.78832031 -0.91015625 1.6796875 C-0.60980469 1.12539062 -0.30945313 0.57109375 0 0 Z " fill="#0B8AD7" transform="translate(72,82)"/>
<path d="M0 0 C1.65 0.33 3.3 0.66 5 1 C5 1.66 5 2.32 5 3 C2.69 3.33 0.38 3.66 -2 4 C-1.34 2.68 -0.68 1.36 0 0 Z " fill="#1F9BE9" transform="translate(45,68)"/>
<path d="M0 0 C0.33 0.66 0.66 1.32 1 2 C0.3125 4.0625 0.3125 4.0625 -1 6 C-3.125 6.75 -3.125 6.75 -5 7 C-2.25 1.125 -2.25 1.125 0 0 Z " fill="#12C2F7" transform="translate(74,86)"/>
<path d="M0 0 C1.32 1.32 2.64 2.64 4 4 C2.68 4.33 1.36 4.66 0 5 C-0.66 3.68 -1.32 2.36 -2 1 C-1.34 0.67 -0.68 0.34 0 0 Z " fill="#474B50" transform="translate(166,82)"/>
<path d="M0 0 C0.33 0 0.66 0 1 0 C0.75 3.375 0.75 3.375 0 7 C-2.0625 8.4375 -2.0625 8.4375 -4 9 C-4 7.68 -4 6.36 -4 5 C-3.01 4.67 -2.02 4.34 -1 4 C-0.26676204 1.98491642 -0.26676204 1.98491642 0 0 Z " fill="#5B5F63" transform="translate(93,78)"/>
<path d="M0 0 C0.66 0 1.32 0 2 0 C2.33 2.64 2.66 5.28 3 8 C2.34 8 1.68 8 1 8 C-0.35439668 5.29120665 -0.06501451 2.99066732 0 0 Z " fill="#5F666F" transform="translate(146,76)"/>
<path d="" fill="#00FFFF" transform="translate(0,0)"/>
<path d="" fill="#00FFFF" transform="translate(0,0)"/>
<path d="" fill="#00FFFF" transform="translate(0,0)"/>
<path d="" fill="#00FFFF" transform="translate(0,0)"/>
</svg>
