<svg width="33" height="33" viewBox="0 0 33 33" fill="none" xmlns="http://www.w3.org/2000/svg">
<path d="M2.75 12.375V8.9375C2.75 5.51375 5.51375 2.75 8.9375 2.75H12.375" stroke="white" stroke-width="1.5" stroke-linecap="round" stroke-linejoin="round"/>
<path d="M20.625 2.75H24.0625C27.4863 2.75 30.25 5.51375 30.25 8.9375V12.375" stroke="white" stroke-width="1.5" stroke-linecap="round" stroke-linejoin="round"/>
<path d="M30.25 22V24.0625C30.25 27.4863 27.4863 30.25 24.0625 30.25H22" stroke="white" stroke-width="1.5" stroke-linecap="round" stroke-linejoin="round"/>
<path d="M12.375 30.25H8.9375C5.51375 30.25 2.75 27.4863 2.75 24.0625V20.625" stroke="white" stroke-width="1.5" stroke-linecap="round" stroke-linejoin="round"/>
<path d="M23.375 13.0625V19.9375C23.375 22.6875 22 24.0625 19.25 24.0625H13.75C11 24.0625 9.625 22.6875 9.625 19.9375V13.0625C9.625 10.3125 11 8.9375 13.75 8.9375H19.25C22 8.9375 23.375 10.3125 23.375 13.0625Z" stroke="white" stroke-width="1.5" stroke-linecap="round" stroke-linejoin="round"/>
<path d="M26.125 16.5H6.875" stroke="white" stroke-width="1.5" stroke-linecap="round" stroke-linejoin="round"/>
</svg>
